<svg xmlns="http://www.w3.org/2000/svg" xmlns:xlink="http://www.w3.org/1999/xlink" width="500" zoomAndPan="magnify" viewBox="0 0 375 374.999991" height="500" preserveAspectRatio="xMidYMid meet" version="1.0"><defs><filter x="0%" y="0%" width="100%" height="100%" id="69093c25a6"><feColorMatrix values="0 0 0 0 1 0 0 0 0 1 0 0 0 0 1 0 0 0 1 0" color-interpolation-filters="sRGB"/></filter><g/><clipPath id="3b24bdbc30"><path d="M 0.0078125 0 L 375 0 L 375 374.78125 L 0.0078125 374.78125 Z M 0.0078125 0 " clip-rule="nonzero"/></clipPath><clipPath id="380ffabcca"><path d="M 187.507812 -0.21875 C 83.953125 -0.21875 0.0078125 83.726562 0.0078125 187.28125 C 0.0078125 290.835938 83.953125 374.78125 187.507812 374.78125 C 291.0625 374.78125 375.007812 290.835938 375.007812 187.28125 C 375.007812 83.726562 291.0625 -0.21875 187.507812 -0.21875 " clip-rule="nonzero"/></clipPath><mask id="4987e167ce"><g filter="url(#69093c25a6)"><rect x="-37.5" width="450" fill="#000000" y="-37.499999" height="449.999989" fill-opacity="0.2784"/></g></mask><clipPath id="d19b7c0d4d"><path d="M 0.828125 0.757812 L 174.078125 0.757812 L 174.078125 174.757812 L 0.828125 174.757812 Z M 0.828125 0.757812 " clip-rule="nonzero"/></clipPath><clipPath id="acd4fc7505"><rect x="0" width="175" y="0" height="176"/></clipPath></defs><g clip-path="url(#3b24bdbc30)"><g clip-path="url(#380ffabcca)"><path fill="#ffffff" d="M 0.0078125 -0.21875 L 375.007812 -0.21875 L 375.007812 374.78125 L 0.0078125 374.78125 Z M 0.0078125 -0.21875 " fill-opacity="1" fill-rule="nonzero"/></g></g><g mask="url(#4987e167ce)"><g transform="matrix(1, 0, 0, 1, 100, 72)"><g clip-path="url(#acd4fc7505)"><g clip-path="url(#d19b7c0d4d)"><path fill="#000000" d="M 174.011719 81.070312 C 174.015625 81.003906 174.003906 80.945312 173.984375 80.886719 C 173.984375 80.882812 173.984375 80.878906 173.984375 80.875 L 156.71875 35.5 C 156.714844 35.496094 156.707031 35.492188 156.707031 35.484375 C 156.675781 35.417969 156.636719 35.355469 156.578125 35.308594 L 118.609375 5.078125 C 118.550781 5.03125 118.476562 4.996094 118.398438 4.984375 C 118.390625 4.984375 118.386719 4.980469 118.382812 4.980469 L 87.390625 0.761719 C 87.328125 0.757812 87.265625 0.761719 87.203125 0.777344 L 72.433594 4.976562 L 72.015625 4.976562 C 71.929688 4.976562 71.847656 5 71.78125 5.042969 C 71.78125 5.042969 71.78125 5.042969 71.777344 5.042969 L 71.402344 5.269531 L 35.046875 15.613281 C 35.035156 15.617188 35.027344 15.625 35.015625 15.628906 C 34.96875 15.648438 34.925781 15.671875 34.882812 15.707031 C 34.867188 15.722656 34.851562 15.734375 34.835938 15.75 C 34.828125 15.757812 34.820312 15.761719 34.8125 15.769531 L 2.972656 57.132812 C 2.964844 57.144531 2.960938 57.160156 2.953125 57.175781 C 2.941406 57.191406 2.929688 57.210938 2.921875 57.230469 C 2.914062 57.242188 2.914062 57.253906 2.910156 57.269531 C 2.898438 57.292969 2.894531 57.316406 2.890625 57.34375 C 2.890625 57.359375 2.882812 57.371094 2.882812 57.386719 L 0.875 93.765625 C 0.875 93.796875 0.875 93.828125 0.882812 93.859375 L 3.816406 112.257812 C 3.820312 112.28125 3.832031 112.300781 3.839844 112.324219 C 3.84375 112.339844 3.84375 112.359375 3.851562 112.371094 C 3.851562 112.375 3.855469 112.378906 3.855469 112.382812 C 3.859375 112.386719 3.859375 112.394531 3.863281 112.398438 L 18.683594 140.652344 C 18.710938 140.703125 18.742188 140.746094 18.785156 140.78125 L 36.171875 156.164062 C 36.199219 156.195312 36.230469 156.222656 36.265625 156.246094 L 56.367188 169.808594 C 56.421875 169.84375 56.484375 169.867188 56.550781 169.878906 L 88.089844 174.785156 L 88.09375 174.789062 C 88.09375 174.789062 88.097656 174.789062 88.097656 174.789062 C 88.097656 174.789062 88.097656 174.789062 88.101562 174.789062 C 88.125 174.792969 88.148438 174.792969 88.171875 174.792969 C 88.203125 174.792969 88.234375 174.789062 88.265625 174.785156 C 88.265625 174.785156 88.265625 174.785156 88.265625 174.78125 C 88.269531 174.78125 88.269531 174.78125 88.269531 174.78125 C 88.269531 174.78125 88.273438 174.78125 88.273438 174.78125 C 88.273438 174.78125 88.277344 174.78125 88.28125 174.78125 C 88.28125 174.78125 88.285156 174.78125 88.28125 174.78125 C 88.28125 174.78125 88.285156 174.78125 88.285156 174.78125 L 88.285156 174.777344 C 88.285156 174.777344 88.285156 174.777344 88.289062 174.777344 C 88.289062 174.777344 88.289062 174.777344 88.292969 174.777344 C 88.292969 174.777344 88.292969 174.777344 88.296875 174.773438 L 139.835938 159.699219 C 139.851562 159.695312 139.863281 159.675781 139.882812 159.667969 C 139.929688 159.648438 139.96875 159.617188 140.007812 159.578125 C 140.027344 159.5625 140.054688 159.558594 140.066406 159.539062 L 171.421875 118.15625 C 171.472656 118.089844 171.492188 118.011719 171.503906 117.9375 C 171.503906 117.925781 171.511719 117.921875 171.511719 117.910156 Z M 170.632812 117.519531 L 157.070312 120.953125 L 172.921875 83.691406 Z M 115.605469 112.242188 L 65.636719 94.644531 L 103.324219 67.484375 Z M 103.328125 66.015625 L 65.746094 41.414062 L 114.605469 27.425781 Z M 102.789062 66.75 L 65.121094 93.898438 L 65.121094 42.089844 Z M 64.214844 94.054688 L 21.464844 73.054688 L 64.214844 42.140625 Z M 73.472656 144.398438 L 32.722656 121.546875 L 64.363281 95.621094 Z M 65.257812 95.476562 L 115.332031 113.109375 L 74.40625 144.460938 Z M 115.878906 113.832031 L 118.519531 151.324219 L 75.226562 144.976562 Z M 116.460938 111.925781 L 104.203125 67.25 L 145.894531 71.421875 Z M 146.472656 72.164062 L 155.722656 121.027344 L 117.050781 112.660156 Z M 156.460938 120.0625 L 147.320312 71.753906 L 172.953125 81.296875 Z M 146.539062 70 L 116.324219 27.453125 L 155.730469 36.007812 Z M 145.777344 70.496094 L 104.179688 66.335938 L 115.449219 27.789062 Z M 65.261719 40.609375 L 72.339844 6.097656 L 114.019531 26.648438 Z M 64.324219 40.65625 L 32.355469 29.957031 L 71.359375 6.359375 Z M 63.683594 41.402344 L 21.328125 72.035156 L 31.601562 30.664062 Z M 20.332031 72.28125 L 3.996094 57.398438 L 30.453125 31.523438 Z M 30.875 29.839844 L 7.628906 52.574219 L 34.109375 18.171875 Z M 20.046875 73.25 L 4.679688 110.011719 L 3.804688 58.453125 Z M 20.464844 74.601562 L 31.289062 120.921875 L 4.871094 111.914062 Z M 21.246094 73.960938 L 63.832031 94.878906 L 32.195312 120.800781 Z M 72.917969 145.128906 L 36.890625 155.285156 L 32.488281 122.457031 Z M 73.851562 145.8125 L 87.277344 173.539062 L 38.003906 155.917969 Z M 88.339844 173.648438 L 74.878906 145.84375 L 117.84375 152.144531 Z M 119.40625 150.953125 L 116.769531 113.53125 L 155.273438 121.859375 Z M 155.121094 123.152344 L 139.464844 158.695312 L 119.925781 151.699219 Z M 156.621094 122.003906 L 169.917969 118.636719 L 141.683594 155.902344 Z M 147.273438 70.765625 L 156.367188 37.132812 L 172.777344 80.261719 Z M 118.65625 6.28125 L 154.488281 34.804688 L 115.785156 26.40625 Z M 87.363281 1.675781 L 111.617188 4.976562 L 75.753906 4.976562 Z M 117.796875 5.886719 L 114.914062 26.078125 L 73.960938 5.886719 Z M 32.023438 29.097656 L 35.542969 16.414062 L 68.457031 7.054688 Z M 1.785156 93.765625 L 3.09375 70.011719 L 3.699219 105.777344 Z M 19.449219 140.15625 L 7.421875 117.226562 L 33.589844 152.671875 Z M 5.492188 113.085938 L 31.503906 121.957031 L 35.828125 154.171875 Z M 39.75 157.503906 L 83.503906 173.152344 L 56.789062 168.996094 Z M 119.085938 152.363281 L 138.238281 159.222656 L 90.542969 173.171875 Z M 119.085938 152.363281 " fill-opacity="1" fill-rule="nonzero"/></g></g></g></g><g fill="#404041" fill-opacity="1"><g transform="translate(80.590454, 229.485633)"><g><path d="M 38.484375 -13.273438 L 0 -13.273438 L 0 -0.800781 C 0 -0.445312 0.445312 0 0.980469 0 L 38.484375 0 C 39.109375 0 39.464844 -0.445312 39.464844 -0.800781 L 39.464844 -12.382812 C 39.464844 -12.828125 39.109375 -13.273438 38.484375 -13.273438 Z M 13.628906 -26.90625 L 13.628906 -70.46875 C 13.628906 -70.824219 13.273438 -71.269531 12.738281 -71.269531 L 0.980469 -71.269531 C 0.445312 -71.269531 0 -70.824219 0 -70.46875 L 0 -26.90625 Z M 13.628906 -26.90625 "/></g></g></g><g fill="#404041" fill-opacity="1"><g transform="translate(122.102212, 229.485633)"><g><path d="M 55.945312 -1.070312 L 28.863281 -70.734375 C 28.597656 -71.449219 27.351562 -71.449219 27.082031 -70.734375 L 0.0898438 -1.070312 C -0.179688 -0.535156 0.179688 0 0.980469 0 L 13.183594 0 C 13.542969 0 13.988281 -0.179688 14.074219 -0.535156 L 27.972656 -40.265625 L 42.050781 -0.535156 C 42.136719 -0.179688 42.582031 0 42.851562 0 L 55.144531 0 C 55.769531 0 56.214844 -0.535156 55.945312 -1.070312 Z M 55.945312 -1.070312 "/></g></g></g><g fill="#404041" fill-opacity="1"><g transform="translate(180.89567, 229.485633)"><g><path d="M 38.484375 -13.273438 L 0 -13.273438 L 0 -0.800781 C 0 -0.445312 0.445312 0 0.980469 0 L 38.484375 0 C 39.109375 0 39.464844 -0.445312 39.464844 -0.800781 L 39.464844 -12.382812 C 39.464844 -12.828125 39.109375 -13.273438 38.484375 -13.273438 Z M 13.628906 -26.90625 L 13.628906 -70.46875 C 13.628906 -70.824219 13.273438 -71.269531 12.738281 -71.269531 L 0.980469 -71.269531 C 0.445312 -71.269531 0 -70.824219 0 -70.46875 L 0 -26.90625 Z M 13.628906 -26.90625 "/></g></g></g><g fill="#404041" fill-opacity="1"><g transform="translate(222.407429, 229.485633)"><g><path d="M 40.980469 -35.457031 C 40.980469 -39.199219 38.039062 -42.226562 34.296875 -42.226562 C 30.558594 -42.226562 27.617188 -39.199219 27.617188 -35.457031 C 27.617188 -31.804688 30.558594 -28.773438 34.296875 -28.773438 C 38.039062 -28.773438 40.980469 -31.804688 40.980469 -35.457031 Z M 68.597656 -35.722656 C 68.597656 -53.453125 57.105469 -71.269531 34.386719 -71.269531 C 11.3125 -71.269531 0 -53.453125 0 -35.722656 C 0 -17.90625 11.3125 0 34.386719 0 C 57.105469 0 68.597656 -17.90625 68.597656 -35.722656 Z M 55.234375 -35.457031 C 55.234375 -23.964844 48.195312 -12.472656 34.386719 -12.472656 C 20.402344 -12.472656 13.453125 -23.964844 13.453125 -35.457031 C 13.453125 -47.128906 20.402344 -58.707031 34.386719 -58.707031 C 48.195312 -58.707031 55.234375 -47.128906 55.234375 -35.457031 Z M 55.234375 -35.457031 "/></g></g></g><g fill="#000000" fill-opacity="1"><g transform="translate(118.809875, 260.859653)"><g><path d="M 10.5625 -1.671875 L 10.5625 0 L 2.328125 0 L 2.328125 -11.21875 L 4.0625 -11.21875 L 4.0625 -1.671875 Z M 10.5625 -1.671875 "/></g></g></g><g fill="#000000" fill-opacity="1"><g transform="translate(131.087772, 260.859653)"><g><path d="M 10.96875 0 L 9.765625 -2.6875 L 4.015625 -2.6875 L 2.8125 0 L 1.015625 0 L 5.984375 -11.21875 L 7.890625 -11.21875 L 12.84375 0 Z M 6.015625 -7.25 L 4.75 -4.359375 L 9.03125 -4.359375 L 7.734375 -7.3125 C 7.429688 -7.96875 7.144531 -8.671875 6.875 -9.421875 C 6.738281 -9.023438 6.597656 -8.644531 6.453125 -8.28125 C 6.304688 -7.925781 6.160156 -7.582031 6.015625 -7.25 Z M 6.015625 -7.25 "/></g></g></g><g fill="#000000" fill-opacity="1"><g transform="translate(144.936474, 260.859653)"><g><path d="M 7.8125 -11.21875 C 9.082031 -11.21875 10.039062 -10.976562 10.6875 -10.5 C 11.332031 -10.019531 11.65625 -9.320312 11.65625 -8.40625 C 11.65625 -7.894531 11.519531 -7.4375 11.25 -7.03125 C 10.976562 -6.632812 10.578125 -6.332031 10.046875 -6.125 C 10.429688 -6 10.789062 -5.816406 11.125 -5.578125 C 11.46875 -5.335938 11.738281 -5.03125 11.9375 -4.65625 C 12.144531 -4.289062 12.25 -3.835938 12.25 -3.296875 C 12.25 -2.648438 12.125 -2.113281 11.875 -1.6875 C 11.632812 -1.257812 11.3125 -0.921875 10.90625 -0.671875 C 10.507812 -0.421875 10.066406 -0.242188 9.578125 -0.140625 C 9.085938 -0.046875 8.597656 0 8.109375 0 L 2.328125 0 L 2.328125 -11.21875 Z M 7.765625 -9.546875 L 4.0625 -9.546875 L 4.0625 -6.625 L 7.953125 -6.625 C 8.460938 -6.632812 8.910156 -6.765625 9.296875 -7.015625 C 9.691406 -7.273438 9.890625 -7.640625 9.890625 -8.109375 C 9.890625 -8.628906 9.679688 -9 9.265625 -9.21875 C 8.859375 -9.4375 8.359375 -9.546875 7.765625 -9.546875 Z M 8.03125 -4.953125 L 4.0625 -4.953125 L 4.0625 -1.671875 L 8.109375 -1.671875 C 8.804688 -1.671875 9.375 -1.804688 9.8125 -2.078125 C 10.257812 -2.347656 10.484375 -2.765625 10.484375 -3.328125 C 10.484375 -3.742188 10.359375 -4.070312 10.109375 -4.3125 C 9.859375 -4.550781 9.539062 -4.71875 9.15625 -4.8125 C 8.78125 -4.90625 8.40625 -4.953125 8.03125 -4.953125 Z M 8.03125 -4.953125 "/></g></g></g><g fill="#000000" fill-opacity="1"><g transform="translate(158.672966, 260.859653)"><g><path d="M 13.921875 -5.609375 C 13.921875 -4.796875 13.765625 -4.039062 13.453125 -3.34375 C 13.148438 -2.644531 12.71875 -2.03125 12.15625 -1.5 C 11.601562 -0.976562 10.945312 -0.570312 10.1875 -0.28125 C 9.4375 0.0078125 8.613281 0.15625 7.71875 0.15625 C 6.789062 0.15625 5.945312 0.0078125 5.1875 -0.28125 C 4.4375 -0.570312 3.785156 -0.976562 3.234375 -1.5 C 2.679688 -2.03125 2.25 -2.644531 1.9375 -3.34375 C 1.632812 -4.039062 1.484375 -4.796875 1.484375 -5.609375 C 1.484375 -6.421875 1.632812 -7.175781 1.9375 -7.875 C 2.25 -8.570312 2.679688 -9.179688 3.234375 -9.703125 C 3.785156 -10.234375 4.4375 -10.644531 5.1875 -10.9375 C 5.945312 -11.226562 6.789062 -11.375 7.71875 -11.375 C 8.613281 -11.375 9.4375 -11.226562 10.1875 -10.9375 C 10.945312 -10.644531 11.601562 -10.234375 12.15625 -9.703125 C 12.71875 -9.179688 13.148438 -8.570312 13.453125 -7.875 C 13.765625 -7.175781 13.921875 -6.421875 13.921875 -5.609375 Z M 12.15625 -5.609375 C 12.15625 -6.390625 11.960938 -7.085938 11.578125 -7.703125 C 11.203125 -8.316406 10.679688 -8.800781 10.015625 -9.15625 C 9.347656 -9.519531 8.582031 -9.703125 7.71875 -9.703125 C 6.820312 -9.703125 6.039062 -9.519531 5.375 -9.15625 C 4.707031 -8.800781 4.1875 -8.316406 3.8125 -7.703125 C 3.4375 -7.085938 3.25 -6.390625 3.25 -5.609375 C 3.25 -4.828125 3.4375 -4.128906 3.8125 -3.515625 C 4.1875 -2.898438 4.707031 -2.410156 5.375 -2.046875 C 6.039062 -1.691406 6.820312 -1.515625 7.71875 -1.515625 C 8.582031 -1.515625 9.347656 -1.691406 10.015625 -2.046875 C 10.679688 -2.410156 11.203125 -2.898438 11.578125 -3.515625 C 11.960938 -4.140625 12.15625 -4.835938 12.15625 -5.609375 Z M 12.15625 -5.609375 "/></g></g></g><g fill="#000000" fill-opacity="1"><g transform="translate(174.076439, 260.859653)"><g><path d="M 11.703125 -7.71875 C 11.703125 -6.976562 11.472656 -6.304688 11.015625 -5.703125 C 10.554688 -5.097656 9.972656 -4.664062 9.265625 -4.40625 L 12.265625 0.015625 L 10.125 0 L 7.328125 -4.171875 L 4.0625 -4.171875 L 4.0625 0 L 2.328125 0 L 2.328125 -11.21875 L 8.09375 -11.21875 C 8.726562 -11.21875 9.316406 -11.066406 9.859375 -10.765625 C 10.398438 -10.472656 10.84375 -10.0625 11.1875 -9.53125 C 11.53125 -9.007812 11.703125 -8.40625 11.703125 -7.71875 Z M 7.6875 -9.546875 L 4.0625 -9.546875 L 4.0625 -5.828125 L 7.90625 -5.828125 C 8.28125 -5.828125 8.613281 -5.914062 8.90625 -6.09375 C 9.207031 -6.269531 9.445312 -6.503906 9.625 -6.796875 C 9.800781 -7.085938 9.890625 -7.398438 9.890625 -7.734375 C 9.890625 -8.078125 9.785156 -8.390625 9.578125 -8.671875 C 9.378906 -8.953125 9.113281 -9.164062 8.78125 -9.3125 C 8.445312 -9.46875 8.082031 -9.546875 7.6875 -9.546875 Z M 7.6875 -9.546875 "/></g></g></g><g fill="#000000" fill-opacity="1"><g transform="translate(188.053357, 260.859653)"><g><path d="M 10.96875 0 L 9.765625 -2.6875 L 4.015625 -2.6875 L 2.8125 0 L 1.015625 0 L 5.984375 -11.21875 L 7.890625 -11.21875 L 12.84375 0 Z M 6.015625 -7.25 L 4.75 -4.359375 L 9.03125 -4.359375 L 7.734375 -7.3125 C 7.429688 -7.96875 7.144531 -8.671875 6.875 -9.421875 C 6.738281 -9.023438 6.597656 -8.644531 6.453125 -8.28125 C 6.304688 -7.925781 6.160156 -7.582031 6.015625 -7.25 Z M 6.015625 -7.25 "/></g></g></g><g fill="#000000" fill-opacity="1"><g transform="translate(201.902059, 260.859653)"><g><path d="M 4.921875 0 L 4.921875 -9.546875 L 1.140625 -9.546875 L 1.140625 -11.21875 L 10.515625 -11.21875 L 10.515625 -9.546875 L 6.65625 -9.546875 L 6.65625 0 Z M 4.921875 0 "/></g></g></g><g fill="#000000" fill-opacity="1"><g transform="translate(213.554838, 260.859653)"><g><path d="M 13.921875 -5.609375 C 13.921875 -4.796875 13.765625 -4.039062 13.453125 -3.34375 C 13.148438 -2.644531 12.71875 -2.03125 12.15625 -1.5 C 11.601562 -0.976562 10.945312 -0.570312 10.1875 -0.28125 C 9.4375 0.0078125 8.613281 0.15625 7.71875 0.15625 C 6.789062 0.15625 5.945312 0.0078125 5.1875 -0.28125 C 4.4375 -0.570312 3.785156 -0.976562 3.234375 -1.5 C 2.679688 -2.03125 2.25 -2.644531 1.9375 -3.34375 C 1.632812 -4.039062 1.484375 -4.796875 1.484375 -5.609375 C 1.484375 -6.421875 1.632812 -7.175781 1.9375 -7.875 C 2.25 -8.570312 2.679688 -9.179688 3.234375 -9.703125 C 3.785156 -10.234375 4.4375 -10.644531 5.1875 -10.9375 C 5.945312 -11.226562 6.789062 -11.375 7.71875 -11.375 C 8.613281 -11.375 9.4375 -11.226562 10.1875 -10.9375 C 10.945312 -10.644531 11.601562 -10.234375 12.15625 -9.703125 C 12.71875 -9.179688 13.148438 -8.570312 13.453125 -7.875 C 13.765625 -7.175781 13.921875 -6.421875 13.921875 -5.609375 Z M 12.15625 -5.609375 C 12.15625 -6.390625 11.960938 -7.085938 11.578125 -7.703125 C 11.203125 -8.316406 10.679688 -8.800781 10.015625 -9.15625 C 9.347656 -9.519531 8.582031 -9.703125 7.71875 -9.703125 C 6.820312 -9.703125 6.039062 -9.519531 5.375 -9.15625 C 4.707031 -8.800781 4.1875 -8.316406 3.8125 -7.703125 C 3.4375 -7.085938 3.25 -6.390625 3.25 -5.609375 C 3.25 -4.828125 3.4375 -4.128906 3.8125 -3.515625 C 4.1875 -2.898438 4.707031 -2.410156 5.375 -2.046875 C 6.039062 -1.691406 6.820312 -1.515625 7.71875 -1.515625 C 8.582031 -1.515625 9.347656 -1.691406 10.015625 -2.046875 C 10.679688 -2.410156 11.203125 -2.898438 11.578125 -3.515625 C 11.960938 -4.140625 12.15625 -4.835938 12.15625 -5.609375 Z M 12.15625 -5.609375 "/></g></g></g><g fill="#000000" fill-opacity="1"><g transform="translate(228.958311, 260.859653)"><g><path d="M 11.703125 -7.71875 C 11.703125 -6.976562 11.472656 -6.304688 11.015625 -5.703125 C 10.554688 -5.097656 9.972656 -4.664062 9.265625 -4.40625 L 12.265625 0.015625 L 10.125 0 L 7.328125 -4.171875 L 4.0625 -4.171875 L 4.0625 0 L 2.328125 0 L 2.328125 -11.21875 L 8.09375 -11.21875 C 8.726562 -11.21875 9.316406 -11.066406 9.859375 -10.765625 C 10.398438 -10.472656 10.84375 -10.0625 11.1875 -9.53125 C 11.53125 -9.007812 11.703125 -8.40625 11.703125 -7.71875 Z M 7.6875 -9.546875 L 4.0625 -9.546875 L 4.0625 -5.828125 L 7.90625 -5.828125 C 8.28125 -5.828125 8.613281 -5.914062 8.90625 -6.09375 C 9.207031 -6.269531 9.445312 -6.503906 9.625 -6.796875 C 9.800781 -7.085938 9.890625 -7.398438 9.890625 -7.734375 C 9.890625 -8.078125 9.785156 -8.390625 9.578125 -8.671875 C 9.378906 -8.953125 9.113281 -9.164062 8.78125 -9.3125 C 8.445312 -9.46875 8.082031 -9.546875 7.6875 -9.546875 Z M 7.6875 -9.546875 "/></g></g></g><g fill="#000000" fill-opacity="1"><g transform="translate(242.935229, 260.859653)"><g><path d="M 12.484375 -11.21875 L 7.65625 -4.59375 L 7.65625 0 L 5.9375 0 L 5.9375 -4.53125 L 0.78125 -11.21875 L 3.046875 -11.21875 L 6.828125 -6.140625 L 10.40625 -11.21875 Z M 12.484375 -11.21875 "/></g></g></g></svg>