<svg xmlns="http://www.w3.org/2000/svg" xmlns:xlink="http://www.w3.org/1999/xlink" width="500" zoomAndPan="magnify" viewBox="0 0 375 374.999991" height="500" preserveAspectRatio="xMidYMid meet" version="1.0"><defs><clipPath id="5d4f6429f5"><path d="M 68.332031 36.652344 L 306.832031 36.652344 L 306.832031 338.152344 L 68.332031 338.152344 Z M 68.332031 36.652344 " clip-rule="nonzero"/></clipPath></defs><rect x="-37.5" width="450" fill="#ffffff" y="-37.499999" height="449.999989" fill-opacity="1"/><rect x="-37.5" width="450" fill="#ffffff" y="-37.499999" height="449.999989" fill-opacity="1"/><rect x="-37.5" width="450" fill="#000000" y="-37.499999" height="449.999989" fill-opacity="1"/><path fill="#f2f2f2" d="M 99.230469 269.460938 C 97.894531 269.4375 96.824219 268.332031 96.847656 267 C 96.871094 265.664062 97.96875 264.601562 99.3125 264.621094 L 99.421875 257.878906 C 94.359375 257.800781 90.183594 261.835938 90.097656 266.886719 C 90.011719 271.9375 94.058594 276.117188 99.117188 276.199219 C 99.167969 276.199219 99.21875 276.199219 99.273438 276.199219 C 104.261719 276.199219 108.359375 272.191406 108.445312 267.191406 L 101.695312 267.078125 C 101.671875 268.414062 100.546875 269.492188 99.230469 269.460938 Z M 99.230469 269.460938 " fill-opacity="1" fill-rule="nonzero"/><path fill="#f2f2f2" d="M 172.082031 309.957031 C 172.46875 310.476562 172.632812 311.113281 172.539062 311.753906 C 172.449219 312.394531 172.113281 312.957031 171.59375 313.34375 C 170.523438 314.144531 169 313.925781 168.199219 312.855469 C 167.402344 311.789062 167.621094 310.265625 168.691406 309.46875 L 164.648438 304.066406 C 160.597656 307.09375 159.765625 312.847656 162.792969 316.890625 C 164.59375 319.296875 167.355469 320.566406 170.152344 320.566406 C 172.066406 320.566406 173.992188 319.972656 175.636719 318.746094 C 177.597656 317.28125 178.871094 315.136719 179.222656 312.71875 C 179.574219 310.296875 178.957031 307.882812 177.492188 305.921875 Z M 172.082031 309.957031 " fill-opacity="1" fill-rule="nonzero"/><path fill="#f2f2f2" d="M 272.738281 284.519531 C 273.992188 285.109375 275.316406 285.386719 276.625 285.386719 C 280.070312 285.386719 283.382812 283.4375 284.941406 280.121094 L 278.832031 277.253906 C 278.261719 278.460938 276.820312 278.984375 275.605469 278.414062 C 274.398438 277.847656 273.875 276.40625 274.441406 275.195312 C 274.71875 274.613281 275.207031 274.167969 275.8125 273.949219 C 276.421875 273.730469 277.082031 273.757812 277.667969 274.035156 L 280.535156 267.929688 C 278.316406 266.890625 275.824219 266.773438 273.523438 267.605469 C 271.214844 268.4375 269.375 270.113281 268.332031 272.332031 C 266.183594 276.90625 268.160156 282.371094 272.738281 284.519531 Z M 272.738281 284.519531 " fill-opacity="1" fill-rule="nonzero"/><path fill="#f2f2f2" d="M 154.449219 245.902344 L 157.503906 251.1875 L 152.214844 254.234375 L 149.160156 248.953125 Z M 154.449219 245.902344 " fill-opacity="1" fill-rule="nonzero"/><path fill="#f2f2f2" d="M 216.566406 246.878906 L 221.855469 243.828125 L 224.90625 249.109375 L 219.617188 252.160156 Z M 216.566406 246.878906 " fill-opacity="1" fill-rule="nonzero"/><path fill="#f2f2f2" d="M 184.582031 237.785156 L 188.085938 232.789062 L 193.085938 236.289062 L 189.582031 241.285156 Z M 184.582031 237.785156 " fill-opacity="1" fill-rule="nonzero"/><path fill="#f2f2f2" d="M 204.730469 259.136719 C 204.359375 258.847656 203.820312 258.417969 203.664062 258.238281 C 203.597656 257.972656 203.554688 257.34375 203.527344 256.914062 C 203.414062 255.25 203.242188 252.738281 201.234375 251.078125 C 199.222656 249.421875 196.71875 249.726562 195.0625 249.929688 C 194.644531 249.980469 194.03125 250.050781 193.753906 250.042969 C 193.496094 249.890625 192.996094 249.460938 192.65625 249.167969 C 191.339844 248.03125 189.53125 246.476562 187.015625 246.714844 C 184.492188 246.953125 183.015625 248.820312 181.9375 250.183594 C 181.644531 250.546875 181.21875 251.089844 181.039062 251.246094 C 180.769531 251.3125 180.140625 251.355469 179.714844 251.382812 C 178.046875 251.496094 175.53125 251.664062 173.871094 253.671875 C 172.207031 255.679688 172.515625 258.179688 172.71875 259.835938 C 172.769531 260.25 172.84375 260.859375 172.832031 261.140625 C 172.679688 261.402344 172.25 261.898438 171.953125 262.238281 C 170.816406 263.554688 169.261719 265.351562 169.5 267.875 C 169.738281 270.390625 171.609375 271.867188 172.972656 272.945312 C 173.335938 273.234375 173.882812 273.664062 174.035156 273.839844 C 174.101562 274.105469 174.144531 274.738281 174.175781 275.164062 C 174.285156 276.828125 174.457031 279.339844 176.464844 281 C 178.476562 282.660156 180.980469 282.351562 182.636719 282.148438 C 183.050781 282.101562 183.664062 282.027344 183.945312 282.035156 C 184.203125 282.1875 184.703125 282.617188 185.042969 282.910156 C 186.269531 283.96875 187.914062 285.390625 190.167969 285.390625 C 190.339844 285.390625 190.511719 285.382812 190.6875 285.363281 C 193.210938 285.125 194.6875 283.261719 195.765625 281.898438 C 196.054688 281.53125 196.484375 280.988281 196.660156 280.835938 C 196.929688 280.765625 197.558594 280.726562 197.988281 280.695312 C 199.652344 280.585938 202.167969 280.414062 203.828125 278.40625 C 205.492188 276.398438 205.183594 273.898438 204.980469 272.246094 C 204.929688 271.832031 204.855469 271.222656 204.867188 270.9375 C 205.019531 270.679688 205.449219 270.179688 205.746094 269.839844 C 206.882812 268.527344 208.4375 266.726562 208.199219 264.207031 C 207.960938 261.6875 206.089844 260.210938 204.730469 259.136719 Z M 200.636719 265.433594 C 199.839844 266.351562 198.851562 267.496094 198.398438 268.972656 C 197.957031 270.414062 198.128906 271.824219 198.28125 273.066406 C 198.3125 273.3125 198.351562 273.625 198.375 273.902344 C 198.09375 273.933594 197.78125 273.953125 197.535156 273.96875 C 196.28125 274.054688 194.863281 274.148438 193.527344 274.855469 C 192.164062 275.578125 191.222656 276.761719 190.46875 277.714844 C 190.335938 277.886719 190.171875 278.09375 190.011719 278.28125 C 189.820312 278.125 189.621094 277.953125 189.460938 277.8125 C 188.539062 277.015625 187.394531 276.03125 185.914062 275.578125 C 185.226562 275.367188 184.546875 275.296875 183.886719 275.296875 C 183.164062 275.296875 182.464844 275.378906 181.816406 275.457031 C 181.566406 275.488281 181.257812 275.527344 180.976562 275.554688 C 180.949219 275.273438 180.929688 274.960938 180.910156 274.714844 C 180.824219 273.464844 180.730469 272.046875 180.023438 270.714844 C 179.300781 269.347656 178.113281 268.410156 177.160156 267.65625 C 176.988281 267.523438 176.78125 267.363281 176.59375 267.203125 C 176.75 267.011719 176.921875 266.8125 177.0625 266.648438 C 177.859375 265.730469 178.847656 264.585938 179.304688 263.109375 C 179.746094 261.667969 179.570312 260.257812 179.417969 259.015625 C 179.390625 258.769531 179.351562 258.460938 179.324219 258.179688 C 179.605469 258.148438 179.917969 258.128906 180.167969 258.113281 C 181.417969 258.027344 182.835938 257.929688 184.171875 257.226562 C 185.539062 256.503906 186.476562 255.316406 187.234375 254.367188 C 187.367188 254.199219 187.53125 253.992188 187.6875 253.800781 C 187.878906 253.957031 188.078125 254.128906 188.242188 254.269531 C 189.160156 255.0625 190.308594 256.054688 191.785156 256.503906 C 193.230469 256.949219 194.640625 256.773438 195.886719 256.621094 C 196.132812 256.59375 196.441406 256.554688 196.722656 256.527344 C 196.753906 256.808594 196.773438 257.121094 196.789062 257.367188 C 196.875 258.617188 196.972656 260.035156 197.675781 261.367188 C 198.398438 262.734375 199.585938 263.671875 200.542969 264.425781 C 200.710938 264.558594 200.917969 264.722656 201.109375 264.878906 C 200.953125 265.070312 200.777344 265.269531 200.636719 265.433594 Z M 200.636719 265.433594 " fill-opacity="1" fill-rule="nonzero"/><path fill="#f2f2f2" d="M 96.230469 128.515625 C 98.773438 132.09375 105.75 136.15625 124.046875 139.605469 C 133.082031 141.308594 143.667969 142.605469 155.191406 143.460938 C 165.675781 144.238281 176.925781 144.648438 188.511719 144.648438 C 199.925781 144.648438 211.011719 144.25 221.363281 143.496094 C 233.066406 142.640625 243.820312 141.332031 252.976562 139.605469 C 271.273438 136.15625 278.25 132.09375 280.796875 128.515625 C 284.550781 125.710938 286.445312 122.617188 286.445312 119.246094 C 286.445312 111.414062 276.25 105.066406 256.140625 100.382812 C 254.089844 99.90625 251.957031 99.453125 249.761719 99.027344 C 245.675781 91.34375 239.867188 84.464844 232.792969 78.902344 L 232.84375 78.828125 L 230.171875 76.933594 C 229.144531 76.207031 228.09375 75.503906 227.023438 74.832031 C 226.34375 74.40625 225.652344 73.992188 224.953125 73.589844 C 217.976562 69.542969 210.203125 66.671875 202.164062 65.207031 C 202.160156 65.207031 202.160156 65.207031 202.15625 65.207031 L 198.921875 64.617188 L 198.90625 64.6875 C 195.640625 64.246094 192.3125 64.019531 188.980469 64.019531 C 163.1875 64.019531 139.691406 77.59375 128.316406 98.820312 C 125.746094 99.308594 123.261719 99.828125 120.882812 100.382812 C 100.773438 105.066406 90.578125 111.414062 90.578125 119.246094 C 90.578125 122.617188 92.472656 125.710938 96.230469 128.515625 Z M 254.605469 131.542969 C 244.265625 133.953125 231.898438 135.71875 218.398438 136.773438 C 218.5 136.386719 218.570312 135.984375 218.570312 135.550781 C 218.570312 131.484375 213.910156 128.914062 203.902344 127.464844 L 202.933594 134.136719 C 205.980469 134.578125 208.136719 135.097656 209.609375 135.5625 C 205.960938 136.695312 198.792969 137.90625 188.511719 137.90625 C 178.195312 137.90625 171.015625 136.6875 167.378906 135.550781 C 171.015625 134.414062 178.195312 133.195312 188.511719 133.195312 C 190.050781 133.195312 191.59375 133.222656 193.097656 133.28125 L 193.355469 126.546875 C 191.765625 126.484375 190.136719 126.453125 188.511719 126.453125 C 181.152344 126.453125 174.199219 127.074219 168.933594 128.207031 C 164.433594 129.171875 158.453125 130.984375 158.453125 135.550781 C 158.453125 135.984375 158.519531 136.386719 158.621094 136.773438 C 145.121094 135.71875 132.753906 133.949219 122.414062 131.542969 C 111.820312 129.074219 105.382812 126.414062 101.6875 124.105469 C 102.183594 123.28125 105.453125 119.4375 123.898438 115.808594 C 126.058594 121.238281 131.378906 125.019531 137.453125 125.019531 C 144.949219 125.019531 151.140625 119.347656 151.957031 112.074219 C 159.183594 111.464844 166.832031 111.039062 174.742188 110.8125 C 176.378906 117.070312 182.109375 121.734375 188.847656 121.734375 C 195.578125 121.734375 201.304688 117.078125 202.949219 110.832031 C 210.449219 111.058594 217.707031 111.464844 224.589844 112.039062 C 225.386719 119.328125 231.585938 125.019531 239.09375 125.019531 C 245.21875 125.019531 250.550781 121.203125 252.6875 115.722656 C 271.511719 119.378906 274.832031 123.273438 275.335938 124.105469 C 271.636719 126.414062 265.203125 129.074219 254.605469 131.542969 Z M 130.808594 114.585938 C 135.234375 113.882812 139.96875 113.265625 144.953125 112.738281 C 143.96875 115.941406 140.980469 118.277344 137.457031 118.277344 C 134.683594 118.277344 132.207031 116.8125 130.808594 114.585938 Z M 181.851562 110.660156 C 184.058594 110.632812 186.277344 110.609375 188.511719 110.609375 C 190.972656 110.609375 193.417969 110.632812 195.84375 110.671875 C 194.542969 113.222656 191.886719 114.992188 188.847656 114.992188 C 185.804688 114.992188 183.148438 113.21875 181.851562 110.660156 Z M 231.582031 112.6875 C 236.589844 113.207031 241.34375 113.820312 245.785156 114.519531 C 244.398438 116.78125 241.902344 118.277344 239.09375 118.277344 C 235.554688 118.277344 232.550781 115.914062 231.582031 112.6875 Z M 204.992188 72.71875 C 205.589844 72.867188 206.1875 73.027344 206.777344 73.191406 C 206.964844 73.246094 207.152344 73.296875 207.339844 73.351562 C 208.050781 73.558594 208.757812 73.773438 209.460938 74.003906 C 209.554688 74.035156 209.652344 74.070312 209.746094 74.101562 C 210.367188 74.308594 210.980469 74.523438 211.589844 74.75 C 211.785156 74.820312 211.976562 74.890625 212.167969 74.960938 C 212.835938 75.214844 213.503906 75.476562 214.160156 75.75 C 214.1875 75.761719 214.21875 75.773438 214.246094 75.785156 C 214.925781 76.070312 215.601562 76.371094 216.273438 76.675781 C 216.453125 76.761719 216.636719 76.847656 216.820312 76.933594 C 217.394531 77.203125 217.960938 77.480469 218.523438 77.765625 C 218.628906 77.820312 218.738281 77.871094 218.84375 77.925781 C 219.496094 78.261719 220.136719 78.609375 220.773438 78.964844 C 220.9375 79.058594 221.097656 79.152344 221.261719 79.246094 C 221.789062 79.546875 222.308594 79.855469 222.824219 80.167969 C 222.917969 80.226562 223.007812 80.28125 223.101562 80.339844 C 221.113281 81.949219 218.605469 82.859375 215.96875 82.859375 C 210.089844 82.859375 205.238281 78.367188 204.675781 72.640625 C 204.78125 72.664062 204.886719 72.691406 204.992188 72.71875 Z M 188.976562 70.761719 C 191.96875 70.761719 194.945312 70.964844 197.875 71.355469 C 197.875 71.414062 197.871094 71.46875 197.871094 71.527344 C 197.871094 81.492188 205.988281 89.601562 215.96875 89.601562 C 220.824219 89.601562 225.398438 87.664062 228.757812 84.308594 C 233.554688 88.101562 237.691406 92.566406 240.992188 97.5 C 225.519531 95.121094 207.429688 93.839844 188.511719 93.839844 C 175.726562 93.839844 163.3125 94.425781 151.832031 95.539062 C 152.980469 94.160156 154.222656 92.859375 155.570312 91.65625 L 151.070312 86.632812 C 147.839844 89.519531 145.089844 92.847656 142.863281 96.542969 C 140.894531 96.796875 138.964844 97.0625 137.070312 97.347656 C 148.054688 80.988281 167.628906 70.761719 188.976562 70.761719 Z M 122.417969 106.949219 C 140.03125 102.84375 163.503906 100.582031 188.511719 100.582031 C 213.515625 100.582031 236.992188 102.84375 254.605469 106.949219 C 272.792969 111.1875 278.730469 115.988281 279.578125 118.601562 C 276.269531 115.390625 268.925781 111.917969 252.976562 108.910156 C 235.722656 105.660156 212.828125 103.867188 188.511719 103.867188 C 164.191406 103.867188 141.300781 105.660156 124.046875 108.910156 C 108.097656 111.917969 100.753906 115.390625 97.445312 118.601562 C 98.292969 115.988281 104.226562 111.1875 122.417969 106.949219 Z M 122.417969 106.949219 " fill-opacity="1" fill-rule="nonzero"/><path fill="#f2f2f2" d="M 173.195312 82.085938 C 177.097656 80.996094 181.140625 80.570312 185.195312 80.816406 L 185.605469 74.085938 C 180.792969 73.796875 176.007812 74.300781 171.378906 75.59375 C 165.933594 77.113281 160.898438 79.65625 156.414062 83.152344 L 160.570312 88.464844 C 164.355469 85.511719 168.601562 83.367188 173.195312 82.085938 Z M 173.195312 82.085938 " fill-opacity="1" fill-rule="nonzero"/><path fill="#f2f2f2" d="M 185.136719 159.929688 L 191.886719 159.929688 L 191.886719 189.929688 L 185.136719 189.929688 Z M 185.136719 159.929688 " fill-opacity="1" fill-rule="nonzero"/><path fill="#f2f2f2" d="M 185.136719 199.707031 L 191.886719 199.707031 L 191.886719 214.875 L 185.136719 214.875 Z M 185.136719 199.707031 " fill-opacity="1" fill-rule="nonzero"/><path fill="#f2f2f2" d="M 209.921875 187.285156 L 203.199219 187.894531 L 201.679688 171.203125 L 208.402344 170.59375 Z M 209.921875 187.285156 " fill-opacity="1" fill-rule="nonzero"/><path fill="#f2f2f2" d="M 210.460938 193.15625 L 213.382812 225.320312 L 206.660156 225.929688 L 203.734375 193.765625 Z M 210.460938 193.15625 " fill-opacity="1" fill-rule="nonzero"/><path fill="#f2f2f2" d="M 175.507812 194.371094 L 168.785156 193.761719 L 170.300781 177.070312 L 177.023438 177.679688 Z M 175.507812 194.371094 " fill-opacity="1" fill-rule="nonzero"/><path fill="#f2f2f2" d="M 168.242188 199.632812 L 174.964844 200.242188 L 172.039062 232.40625 L 165.316406 231.796875 Z M 168.242188 199.632812 " fill-opacity="1" fill-rule="nonzero"/><path fill="#f2f2f2" d="M 132.777344 161.859375 L 139.371094 163.316406 L 135.742188 179.675781 L 129.152344 178.21875 Z M 132.777344 161.859375 " fill-opacity="1" fill-rule="nonzero"/><path fill="#f2f2f2" d="M 127.871094 183.960938 L 134.464844 185.421875 L 127.464844 216.953125 L 120.871094 215.492188 Z M 127.871094 183.960938 " fill-opacity="1" fill-rule="nonzero"/><path fill="#f2f2f2" d="M 270.835938 84.542969 C 277.535156 84.542969 282.988281 79.097656 282.988281 72.40625 C 282.988281 65.714844 277.535156 60.269531 270.835938 60.269531 C 264.136719 60.269531 258.683594 65.714844 258.683594 72.40625 C 258.683594 79.097656 264.136719 84.542969 270.835938 84.542969 Z M 270.835938 67.011719 C 273.8125 67.011719 276.238281 69.433594 276.238281 72.40625 C 276.238281 75.378906 273.8125 77.800781 270.835938 77.800781 C 267.859375 77.800781 265.4375 75.378906 265.4375 72.40625 C 265.4375 69.433594 267.859375 67.011719 270.835938 67.011719 Z M 270.835938 67.011719 " fill-opacity="1" fill-rule="nonzero"/><path fill="#f2f2f2" d="M 248.449219 178.15625 L 241.875 179.671875 L 238.101562 163.339844 L 244.679688 161.824219 Z M 248.449219 178.15625 " fill-opacity="1" fill-rule="nonzero"/><path fill="#f2f2f2" d="M 249.769531 183.882812 L 257.039062 215.355469 L 250.460938 216.871094 L 243.191406 185.398438 Z M 249.769531 183.882812 " fill-opacity="1" fill-rule="nonzero"/><path fill="#f2f2f2" d="M 96.152344 65.875 L 102.257812 65.875 L 102.257812 71.976562 L 96.152344 71.976562 Z M 96.152344 65.875 " fill-opacity="1" fill-rule="nonzero"/><path fill="#f2f2f2" d="M 126.09375 54.171875 L 132.203125 54.171875 L 132.203125 60.269531 L 126.09375 60.269531 Z M 126.09375 54.171875 " fill-opacity="1" fill-rule="nonzero"/><path fill="#f2f2f2" d="M 286.445312 162.601562 L 292.550781 162.601562 L 292.550781 168.703125 L 286.445312 168.703125 Z M 286.445312 162.601562 " fill-opacity="1" fill-rule="nonzero"/><path fill="#f2f2f2" d="M 87.042969 179.621094 L 93.148438 179.621094 L 93.148438 185.71875 L 87.042969 185.71875 Z M 87.042969 179.621094 " fill-opacity="1" fill-rule="nonzero"/><path fill="#f2f2f2" d="M 105.390625 194.222656 L 111.496094 194.222656 L 111.496094 200.324219 L 105.390625 200.324219 Z M 105.390625 194.222656 " fill-opacity="1" fill-rule="nonzero"/><path fill="#f2f2f2" d="M 267.464844 174.027344 L 273.570312 174.027344 L 273.570312 180.128906 L 267.464844 180.128906 Z M 267.464844 174.027344 " fill-opacity="1" fill-rule="nonzero"/><path fill="#f2f2f2" d="M 91.785156 209.167969 L 97.894531 209.167969 L 97.894531 215.265625 L 91.785156 215.265625 Z M 91.785156 209.167969 " fill-opacity="1" fill-rule="nonzero"/><path fill="#f2f2f2" d="M 261.738281 149.960938 L 267.847656 149.960938 L 267.847656 156.058594 L 261.738281 156.058594 Z M 261.738281 149.960938 " fill-opacity="1" fill-rule="nonzero"/><path fill="#f2f2f2" d="M 115.769531 78.953125 L 121.878906 78.953125 L 121.878906 85.050781 L 115.769531 85.050781 Z M 115.769531 78.953125 " fill-opacity="1" fill-rule="nonzero"/><g clip-path="url(#5d4f6429f5)"><path fill="#f2f2f2" d="M 68.417969 36.652344 L 68.417969 338.152344 L 306.742188 338.152344 L 306.742188 36.652344 Z M 299.992188 248.792969 C 284.582031 239.160156 264.445312 231.757812 241.195312 227.203125 L 227.105469 153.796875 L 220.476562 155.066406 L 246.328125 289.757812 L 252.957031 288.488281 L 242.566406 234.34375 C 265.742188 239.15625 285.464844 246.886719 299.992188 256.851562 L 299.992188 331.410156 L 75.167969 331.410156 L 75.167969 258.140625 C 89.648438 247.695312 110.488281 239.339844 134.457031 234.347656 L 124.066406 288.488281 L 130.695312 289.757812 L 156.546875 155.070312 L 149.917969 153.800781 L 135.832031 227.191406 C 111.898438 231.886719 90.707031 239.863281 75.167969 249.972656 L 75.167969 43.394531 L 299.992188 43.394531 Z M 299.992188 248.792969 " fill-opacity="1" fill-rule="nonzero"/></g></svg>